<svg xmlns="http://www.w3.org/2000/svg" width="120" height="40" viewBox="0 0 120 40">
    <path data-name="패스 1270" d="M101.454 18.489c-.485 2.022-1.638 3.443-3.543 3.443-1.922 0-3.041-1.3-3.041-3.693a12.718 12.718 0 0 1 .986-4.813c.752-1.754 1.939-2.924 3.677-2.924 1.989 0 2.807 1.4 2.673 3.409l-2.289.568c.134-1 .1-1.9-.568-1.9-.652 0-1.12.769-1.554 2.506a15.7 15.7 0 0 0-.535 3.409c0 .852.267 1.37.852 1.37.7 0 1.02-.9 1.22-1.938z"/>
    <path data-name="패스 1271" d="m106.066 10-1.688 9.625a2.412 2.412 0 0 0-.05.384c0 .184.1.284.251.284a.743.743 0 0 0 .3-.084l-.251 1.437a2.194 2.194 0 0 1-1.069.251 1.429 1.429 0 0 1-1.6-1.571 2.778 2.778 0 0 1 .083-.668l1.688-9.659z"/>
    <path data-name="패스 1272" d="m109.056 13.342-1 5.648a2.041 2.041 0 0 0-.034.418c0 .4.151.618.519.618.45 0 .818-.451.985-1.387l.919-5.3h2.357l-1.1 6.283a2.447 2.447 0 0 0-.05.384c0 .184.083.285.251.285a.741.741 0 0 0 .3-.084l-.251 1.437a2.172 2.172 0 0 1-1.053.251 1.3 1.3 0 0 1-1.47-1.253c0-.083.017-.267.017-.35a2.152 2.152 0 0 1-2.073 1.638 1.725 1.725 0 0 1-1.771-1.938 3.453 3.453 0 0 1 .067-.685l1.052-5.966z"/>
    <path data-name="패스 1273" d="M117.945 13.208c1.236 0 1.955 1.086 1.955 2.808a9.79 9.79 0 0 1-.769 3.793 2.928 2.928 0 0 1-2.49 2.122 1.628 1.628 0 0 1-1.637-1.487l-.485 1.354h-1.89l2.073-11.8h2.339l-.8 4.6a1.873 1.873 0 0 1 1.7-1.387m-2.056 3.292a24.923 24.923 0 0 0-.435 2.791c0 .5.2.836.619.836.552 0 .886-.719 1.17-1.838a9.314 9.314 0 0 0 .284-2.139c0-.718-.234-1.086-.652-1.086-.5 0-.836.6-.986 1.437"/>
    <path data-name="패스 1274" d="M9.634 10.188a12.19 12.19 0 0 0-8.248 5.687 10.415 10.415 0 0 0-.318 9.767 8.732 8.732 0 0 0 5.731 4.034c1.875.43 5.615.743 8.277-1.21l-.688-3.67a.176.176 0 0 0-.282-.107 7.455 7.455 0 0 1-6.673.934c-3.261-1.409-3.316-5.509-1.865-8.219a6.466 6.466 0 0 1 7.246-3.3 5.39 5.39 0 0 1 3.252 2.015.175.175 0 0 0 .281.006l2.322-2.951c-2.523-3.65-7.127-3.306-9.035-2.986"/>
    <path data-name="패스 1275" d="M43.783 24.344a.176.176 0 0 0-.279-.07c-1.755 1.529-5.117 2.27-7.107 1.433-3.283-1.381-3.482-4.711-2.143-7.684 1.786-3.965 6-5.081 7.631-3.854 1.095.824.749 2.385-.4 3.557-1.274 1.3-3.147 1.765-5.993 1.879a.177.177 0 0 0-.159.241l1.22 3.118c5.513.5 9.3-2.534 10.258-5.854a5.137 5.137 0 0 0-2.846-6.442 9.687 9.687 0 0 0-6.106-.338 12.569 12.569 0 0 0-7.851 6.362c-1.7 3.714-1.42 6.855.035 9.334a8.892 8.892 0 0 0 5.915 3.76 11.552 11.552 0 0 0 9.152-2.059z"/>
    <path data-name="패스 1276" d="M70.873 12.179a4.621 4.621 0 0 0-3.967-2.145 8.3 8.3 0 0 0-5.271 2.052 4.58 4.58 0 0 0-3.934-2.062c-4.4-.287-7.679 2.444-8.43 5.53l-3.363 13.8a.176.176 0 0 0 .172.218h4.425s2.843-11.7 3.19-13.1a2.95 2.95 0 0 1 2.706-2.237c1.675.014 1.661 1.521 1.436 2.456l-3.131 12.655a.176.176 0 0 0 .172.219h4.371l3.164-12.909a2.836 2.836 0 0 1 2.592-2.422c1.754 0 1.751 1.624 1.539 2.459L63.42 29.35a.177.177 0 0 0 .172.219h4.426l3.165-13.161a6 6 0 0 0-.311-4.229"/>
    <path data-name="패스 1277" d="M88.78 25.421c.2-.811 1.086-4.793 1.666-6.965 1.277-4.789-1.579-8.258-6.689-8.445a10.875 10.875 0 0 0-8.007 2.748 12.253 12.253 0 0 0-3.561 12.62 7.1 7.1 0 0 0 6.518 4.61 7.379 7.379 0 0 0 4.558-1.332l-1.223-3.126a.176.176 0 0 0-.263-.083 4.025 4.025 0 0 1-3.286.682 3.645 3.645 0 0 1-2.522-3.359 8.472 8.472 0 0 1 1.318-5.714 6.941 6.941 0 0 1 4.774-3.286c2.351-.34 4.5 1.111 3.909 4.076-.094.469-1.7 7.3-1.82 7.776-.63 2.62.373 3.781.9 4.321l4.125-1.252a.179.179 0 0 0 .1-.273 3.953 3.953 0 0 1-.494-3"/>
    <path data-name="패스 1278" d="m20.805 29.57 3.164-12.9a3.411 3.411 0 0 1 3.124-2.709 3.454 3.454 0 0 1 2.447.8.176.176 0 0 0 .254-.027l2.475-3.244a7.248 7.248 0 0 0-6.165-1.305c-2.728.572-5.844 2.75-6.47 5.388-.333 1.405-3.375 13.775-3.375 13.775a.177.177 0 0 0 .172.219z"/>
</svg>
