<?xml version="1.0" standalone="no"?>
<!DOCTYPE svg PUBLIC "-//W3C//DTD SVG 20010904//EN"
 "http://www.w3.org/TR/2001/REC-SVG-20010904/DTD/svg10.dtd">
<svg version="1.0" xmlns="http://www.w3.org/2000/svg"
 width="1280.000000pt" height="1176.000000pt" viewBox="0 0 1280.000000 1176.000000"
 preserveAspectRatio="xMidYMid meet">
<metadata>
Created by potrace 1.15, written by Peter Selinger 2001-2017
</metadata>
<g transform="translate(0.000000,1176.000000) scale(0.100000,-0.100000)"
fill="#000000" stroke="none">
<path d="M6390 11410 c0 -11 -6 -20 -14 -20 -16 0 -21 -20 -36 -170 -6 -63
-18 -159 -26 -213 -8 -54 -14 -117 -14 -140 0 -23 -7 -74 -15 -112 -9 -39 -18
-88 -21 -110 -17 -139 -37 -289 -54 -416 -11 -81 -20 -169 -20 -197 0 -28 -12
-124 -26 -214 -14 -89 -31 -221 -39 -293 -8 -71 -19 -161 -24 -200 -22 -151
-59 -443 -81 -635 -32 -293 -50 -438 -96 -785 -9 -66 -17 -127 -18 -135 0 -8
-12 -17 -26 -18 -14 -2 -59 -30 -100 -61 -41 -32 -81 -61 -87 -65 -8 -4 -58
35 -135 106 -68 61 -145 132 -173 157 -292 263 -616 585 -918 911 -95 102
-201 214 -237 250 -36 36 -121 125 -189 198 -122 131 -125 134 -159 127 -19
-3 -42 -11 -52 -17 -32 -20 -70 2 -186 110 -63 59 -123 110 -132 113 -9 4 -82
69 -162 145 -80 77 -199 186 -265 244 -66 57 -154 136 -196 175 -70 64 -172
149 -220 184 -15 10 -22 11 -33 1 -15 -11 -11 -41 4 -37 8 2 87 -107 635 -878
164 -231 363 -510 441 -620 78 -110 390 -549 693 -975 303 -426 546 -777 540
-779 -6 -2 -70 4 -142 13 -73 9 -215 25 -317 36 -269 30 -319 36 -485 59 -194
26 -424 55 -600 76 -188 21 -360 44 -415 55 -25 5 -115 16 -200 25 -85 9 -231
28 -325 41 -93 14 -199 29 -235 34 -36 5 -123 17 -195 25 -71 9 -167 21 -213
26 -63 9 -86 8 -97 -1 -22 -18 -19 -57 5 -65 11 -4 27 -19 35 -34 9 -18 30
-34 62 -46 63 -23 421 -178 499 -216 33 -16 64 -29 69 -29 8 0 120 -52 196
-91 21 -11 67 -30 103 -44 36 -14 74 -29 83 -35 47 -25 308 -140 320 -140 51
0 -4 -85 -61 -95 -17 -3 -132 -12 -256 -20 -232 -16 -401 -29 -505 -39 -33 -4
-195 -15 -360 -27 -165 -11 -349 -24 -410 -29 -139 -12 -797 -59 -932 -67
-144 -8 -140 -22 12 -43 44 -6 98 -15 120 -20 101 -22 218 -39 308 -45 61 -4
113 -13 140 -25 37 -16 192 -46 582 -111 61 -10 148 -25 195 -34 47 -9 137
-25 200 -35 63 -11 140 -24 170 -29 30 -6 125 -22 210 -37 85 -14 173 -29 195
-34 22 -4 101 -17 175 -29 74 -12 178 -30 230 -41 115 -22 220 -41 405 -76 77
-14 143 -29 148 -33 7 -7 -103 -62 -513 -256 -113 -53 -209 -100 -213 -105 -4
-4 -5 -19 -1 -34 4 -18 13 -26 29 -26 12 0 29 -7 36 -17 13 -15 78 -16 816
-10 442 3 805 2 808 -3 2 -4 -30 -39 -73 -77 -69 -62 -456 -370 -626 -498 -76
-58 -225 -173 -276 -214 -19 -15 -80 -62 -135 -105 -55 -42 -134 -103 -175
-136 -41 -33 -110 -85 -152 -116 -79 -56 -108 -84 -72 -69 10 4 80 30 154 57
74 27 205 76 290 108 85 31 157 56 159 54 2 -2 -39 -50 -91 -106 -52 -57 -161
-177 -242 -268 -82 -91 -163 -177 -181 -193 -19 -15 -111 -111 -206 -215 -180
-194 -544 -579 -832 -881 -92 -96 -167 -178 -167 -182 0 -12 40 -35 71 -43 20
-4 37 2 70 27 120 91 138 100 153 87 17 -14 19 -13 301 172 88 58 250 163 360
235 110 71 387 251 615 400 228 149 509 331 624 406 116 75 212 135 213 133 2
-2 -73 -154 -167 -338 -93 -184 -170 -337 -170 -340 0 -10 90 -39 112 -36 13
2 53 39 97 88 135 153 334 374 436 486 55 60 150 166 211 234 389 436 564 627
588 639 26 14 28 13 66 -25 l39 -39 -14 -195 c-8 -107 -19 -256 -25 -330 -5
-74 -15 -202 -20 -285 -6 -82 -15 -202 -20 -265 -6 -63 -14 -171 -20 -240 -5
-69 -14 -177 -19 -240 -18 -199 -18 -230 -6 -240 7 -6 19 -8 26 -5 13 6 138
192 190 282 13 24 28 43 33 43 5 0 5 -47 1 -107 -4 -60 -11 -691 -14 -1403 -6
-1351 -6 -1350 33 -1310 8 8 19 38 24 65 15 75 91 384 109 435 8 25 19 65 23
90 14 72 29 139 96 440 36 157 71 317 80 355 19 88 38 168 62 270 11 44 27
118 37 165 9 47 19 91 21 98 7 23 24 2 24 -29 0 -16 5 -29 10 -29 6 0 10 -23
10 -50 0 -28 9 -106 20 -173 20 -122 27 -158 54 -297 8 -41 18 -95 21 -120 11
-78 25 -120 40 -120 18 0 26 13 30 53 2 18 9 68 15 112 6 44 17 139 25 210 9
72 17 140 20 152 3 12 9 66 15 120 5 54 16 148 24 208 8 61 22 180 31 265 9
85 23 200 31 255 14 93 18 175 13 235 -1 14 3 75 10 135 6 61 14 135 18 165 3
30 11 62 18 70 14 17 23 68 36 200 4 52 13 128 18 168 6 40 13 94 16 120 3 26
12 97 20 157 8 61 19 157 25 215 6 58 15 134 20 169 5 35 7 68 4 73 -11 17 19
7 34 -12 12 -14 33 -22 69 -25 29 -2 61 -9 72 -14 33 -18 65 -12 101 19 19 16
45 29 58 30 15 0 63 -38 148 -117 69 -65 134 -122 144 -128 10 -5 70 -57 133
-115 63 -58 160 -145 216 -195 56 -49 137 -121 179 -160 42 -38 142 -126 221
-195 206 -179 362 -321 549 -499 89 -86 172 -159 185 -164 12 -4 53 -38 92
-75 38 -37 99 -89 133 -117 35 -27 96 -79 136 -115 40 -36 158 -139 261 -230
103 -91 233 -205 287 -255 55 -49 121 -108 148 -130 52 -43 291 -249 402 -348
65 -58 98 -69 98 -33 0 9 -39 67 -87 129 -49 63 -110 145 -137 183 -134 187
-183 252 -216 289 -40 43 -126 160 -150 204 -26 47 -79 118 -135 183 -30 35
-55 68 -55 74 0 10 -38 62 -135 181 -27 34 -99 130 -160 214 -60 83 -151 206
-201 273 -50 66 -99 136 -108 154 -9 18 -41 61 -69 95 -29 34 -86 108 -127
165 -130 179 -125 171 -112 193 7 10 12 25 12 34 0 19 -127 176 -266 330 -158
174 -238 272 -354 428 -69 93 -115 154 -230 304 -38 50 -70 95 -70 100 1 4 11
21 24 37 23 27 27 28 87 23 35 -3 102 -10 149 -16 47 -6 175 -20 285 -31 110
-11 236 -25 280 -31 44 -6 125 -15 180 -19 55 -5 165 -16 245 -25 203 -23 379
-41 560 -60 280 -29 425 -45 440 -50 23 -7 378 -35 443 -35 50 0 58 3 55 17
-3 17 -70 50 -518 260 -506 236 -590 276 -590 283 0 20 82 30 385 44 182 9
409 21 505 26 96 5 265 14 375 20 110 6 283 15 385 20 102 6 313 17 470 25
157 8 335 19 395 25 61 5 153 12 205 16 90 6 120 15 120 35 0 15 -39 26 -151
44 -57 9 -133 23 -169 30 -100 22 -329 66 -390 75 -30 5 -118 21 -195 35 -77
14 -192 35 -255 46 -160 29 -194 35 -280 54 -41 9 -104 20 -140 25 -36 5 -128
21 -205 35 -77 14 -178 32 -225 41 -47 8 -116 22 -155 30 -100 23 -210 43
-285 54 -127 18 -194 31 -207 41 -6 6 -54 14 -105 19 -51 5 -127 17 -168 25
-41 9 -92 18 -112 22 -22 3 -38 11 -38 19 0 16 74 54 140 73 51 15 67 21 130
49 25 12 74 28 110 37 36 9 72 23 81 31 8 8 20 14 26 14 6 0 50 16 99 36 49
20 105 40 124 44 19 4 69 21 110 38 41 17 112 45 158 63 45 18 82 38 82 45 0
6 7 17 15 24 8 7 15 25 15 40 l0 28 -567 -5 c-313 -2 -788 -6 -1058 -9 -269
-3 -523 -2 -562 1 -118 11 -111 22 165 259 31 27 117 101 191 164 73 64 148
128 166 142 18 14 89 74 156 134 68 59 168 146 222 193 53 47 97 92 97 99 0
35 -36 31 -170 -21 -151 -58 -189 -73 -201 -80 -4 -3 -4 8 1 24 7 27 178 221
395 451 45 47 98 105 120 130 21 25 79 89 129 144 50 54 143 155 207 225 294
318 369 404 369 419 0 17 209 231 242 249 20 10 178 183 178 195 0 22 74 69
-1461 -915 -229 -147 -422 -267 -429 -267 -7 0 -10 6 -7 13 2 6 109 185 235
396 230 383 244 411 197 411 -7 0 -48 -41 -91 -92 -152 -176 -146 -170 -173
-165 -21 4 -43 -11 -130 -91 -58 -54 -157 -149 -220 -213 -64 -63 -289 -282
-501 -486 -212 -204 -450 -437 -530 -517 -80 -80 -152 -146 -161 -146 -16 0
-69 58 -118 128 -12 17 -29 32 -37 32 -11 0 -14 17 -14 79 0 80 29 1223 33
1290 4 75 -27 34 -142 -186 -64 -123 -119 -223 -123 -223 -5 0 -8 15 -8 33 0
17 -11 122 -25 232 -14 110 -32 270 -41 355 -8 85 -19 180 -24 210 -5 30 -14
107 -21 170 -23 238 -39 379 -54 490 -9 63 -24 203 -35 310 -11 107 -25 229
-31 270 -5 41 -14 107 -19 145 -6 39 -17 144 -25 235 -12 124 -20 169 -33 183
-11 12 -18 41 -20 88 -2 38 -8 69 -13 69 -5 0 -9 -9 -9 -20z"/>
</g>
</svg>
